<?xml version="1.0" standalone="no"?><!DOCTYPE svg PUBLIC "-//W3C//DTD SVG 1.1//EN" "http://www.w3.org/Graphics/SVG/1.1/DTD/svg11.dtd"><svg t="1704684322505" class="icon" viewBox="0 0 1024 1024" version="1.1" xmlns="http://www.w3.org/2000/svg" p-id="3771" xmlns:xlink="http://www.w3.org/1999/xlink" width="200" height="200"><path d="M514.56 720.384a183.552 183.552 0 0 1-25.6-1.792 181.248 181.248 0 0 1-82.432-324.864A25.6 25.6 0 1 1 435.2 435.2a130.048 130.048 0 1 0 184.32 179.2 25.6 25.6 0 0 1 41.728 29.44 181.76 181.76 0 0 1-39.68 40.704 179.2 179.2 0 0 1-107.008 35.84z" fill="#d81e06" p-id="3772"></path><path d="M522.921285 383.226793m-24.826106 18.525038a30.976 30.976 0 1 0 49.652212-37.050076 30.976 30.976 0 1 0-49.652212 37.050076Z" fill="#d81e06" p-id="3773"></path><path d="M617.604396 422.850009m-24.826106 18.525038a30.976 30.976 0 1 0 49.652212-37.050076 30.976 30.976 0 1 0-49.652212 37.050076Z" fill="#d81e06" p-id="3774"></path><path d="M668.743343 515.389302m-24.826106 18.525038a30.976 30.976 0 1 0 49.652212-37.050076 30.976 30.976 0 1 0-49.652212 37.050076Z" fill="#d81e06" p-id="3775"></path><path d="M421.632 956.416a30.976 30.976 0 0 1-7.168 0A423.68 423.68 0 0 1 204.8 834.304a30.72 30.72 0 0 1-4.608-35.84 75.008 75.008 0 0 0 6.912-16.64 76.8 76.8 0 0 0-72.448-96.256 30.72 30.72 0 0 1-28.672-22.016 422.656 422.656 0 0 1 0-242.432 30.72 30.72 0 0 1 28.672-22.016 76.8 76.8 0 0 0 72.448-96.512 76.8 76.8 0 0 0-6.912-16.64A30.72 30.72 0 0 1 204.8 250.112 423.68 423.68 0 0 1 414.464 128a30.72 30.72 0 0 1 33.28 13.824 74.496 74.496 0 0 0 11.008 14.336 78.848 78.848 0 0 0 108.544 0 76.8 76.8 0 0 0 11.008-14.336A30.72 30.72 0 0 1 611.84 128a423.424 423.424 0 0 1 209.92 122.112 30.72 30.72 0 0 1 4.608 35.84 76.8 76.8 0 0 0 65.536 113.408 30.72 30.72 0 0 1 28.672 22.016 422.656 422.656 0 0 1 0 242.432 30.72 30.72 0 0 1-28.672 22.016 74.24 74.24 0 0 0-64.768 38.144 74.752 74.752 0 0 0 0 75.008 30.72 30.72 0 0 1-4.608 35.84 423.68 423.68 0 0 1-210.176 121.344 30.72 30.72 0 0 1-33.28-13.824 76.8 76.8 0 0 0-119.552-14.336 74.24 74.24 0 0 0-11.008 14.336 30.72 30.72 0 0 1-26.88 14.08z m-158.208-150.016A362.24 362.24 0 0 0 409.6 890.624l6.144-6.656a138.496 138.496 0 0 1 195.584 0l6.144 6.656a362.24 362.24 0 0 0 145.408-84.224q-1.536-4.352-2.816-8.704a138.24 138.24 0 0 1 97.792-169.216l9.216-2.048a360.448 360.448 0 0 0 0-168.192l-9.216-2.048a138.24 138.24 0 0 1-97.792-169.216c0-2.816 1.792-5.888 2.816-8.704a361.984 361.984 0 0 0-145.664-84.224l-6.144 6.656a138.496 138.496 0 0 1-195.584 0L409.6 193.792a362.24 362.24 0 0 0-145.664 84.224c0 2.816 2.048 5.888 2.816 8.704a138.24 138.24 0 0 1-97.792 169.216l-9.216 2.048a360.704 360.704 0 0 0 0 168.192l9.216 2.048a138.24 138.24 0 0 1 97.792 169.216c-1.536 3.072-2.304 6.144-3.328 8.96z m537.6-98.304z" fill="#d81e06" p-id="3776"></path></svg>